<?xml version="1.0" encoding="UTF-8"?>
<svg viewBox="0 0 175 175" xmlns="http://www.w3.org/2000/svg">
 <path d="m32.794 161.91c-3.3247-0.4769-6.2175-1.1469-6.4285-1.4888s-1.1888-1.9075-2.1728-3.4789c-2.7657-4.4166-4.6957-9.1874-7.8024-19.286-5.5378-18.001-6.6154-22.682-5.8742-25.516 1.1445-4.3765 11.067-10.561 17.246-10.749 4.9854-0.15179 5.5654 0.27748 8.4657 6.2656 1.7125 3.5357 4.2232 9.1607 5.5794 12.5s3.3408 6.0714 4.4105 6.0714 5.0995-4.9821 8.9553-11.071 7.6175-11.755 8.3593-12.59 2.1763-3.0852 3.1877-5c4.337-8.2106 39.472-56.403 49.927-68.481 2.3804-2.75 4.3294-5.4756 4.3313-6.0568s3.3784-3.2432 7.5034-5.9155c5.6361-3.6512 9.6326-5.0605 16.081-5.6707 11.924-1.1282 13.048-0.04628 8.0266 7.7254-2.2551 3.4904-5.3196 7.6319-6.81 9.2033s-5.9118 7.0357-9.8253 12.143-7.8194 9.9286-8.6797 10.714-3.0793 3.6786-4.9312 6.4286-3.7194 5.3214-4.1501 5.7143c-3.735 3.4068-43.817 59.201-47.208 65.714-1.0228 1.9643-2.2455 3.8929-2.7171 4.2857s-4.5808 6.3179-9.1315 13.167-8.9657 12.88-9.8114 13.403c-3.0999 1.9158-10.641 2.8144-16.531 1.9696l-3e-5 4e-5z" fill="#ed1c24"/>
</svg>
